<?xml version="1.0" encoding="UTF-8"?>
<svg xmlns="http://www.w3.org/2000/svg" xmlns:xlink="http://www.w3.org/1999/xlink" width="32px" height="32px" viewBox="0 0 32 32" version="1.1">
<g id="surface1">
<path style=" stroke:none;fill-rule:nonzero;fill:rgb(0%,0%,0%);fill-opacity:1;" d="M 27.199219 0 L 25.066406 0 C 24.773438 0 24.535156 0.238281 24.535156 0.535156 L 24.535156 25.59375 C 24.535156 27.359375 23.097656 28.792969 21.332031 28.792969 L 14.398438 28.800781 C 12.636719 28.800781 11.199219 27.363281 11.199219 25.59375 L 11.199219 21.332031 L 12.265625 21.332031 C 12.5 21.332031 12.707031 21.179688 12.777344 20.957031 L 13.316406 19.199219 L 11.199219 19.199219 C 10.90625 19.199219 10.667969 18.960938 10.667969 18.667969 C 10.667969 18.371094 10.90625 18.132812 11.199219 18.132812 L 13.644531 18.132812 L 13.972656 17.066406 L 11.199219 17.066406 C 10.90625 17.066406 10.667969 16.828125 10.667969 16.535156 C 10.667969 16.238281 10.90625 16 11.199219 16 L 14.300781 16 L 14.628906 14.933594 L 11.199219 14.933594 C 10.90625 14.933594 10.667969 14.695312 10.667969 14.398438 C 10.667969 14.105469 10.90625 13.867188 11.199219 13.867188 L 14.933594 13.867188 L 14.933594 12.800781 L 11.199219 12.800781 C 10.90625 12.800781 10.667969 12.5625 10.667969 12.265625 C 10.667969 11.972656 10.90625 11.734375 11.199219 11.734375 L 14.933594 11.734375 L 14.933594 6.933594 C 14.933594 6.636719 14.695312 6.398438 14.398438 6.398438 L 14.398438 1.066406 C 14.398438 0.773438 14.160156 0.535156 13.867188 0.535156 L 12.265625 0.535156 C 12.265625 0.238281 12.027344 0 11.734375 0 L 7.464844 0 C 7.171875 0 6.933594 0.238281 6.933594 0.535156 L 5.332031 0.535156 C 5.039062 0.535156 4.800781 0.773438 4.800781 1.066406 L 4.800781 6.398438 C 4.503906 6.398438 4.265625 6.636719 4.265625 6.933594 L 4.265625 11.734375 L 8 11.734375 C 8.292969 11.734375 8.535156 11.972656 8.535156 12.265625 C 8.535156 12.5625 8.292969 12.800781 8 12.800781 L 4.265625 12.800781 L 4.265625 13.867188 L 8 13.867188 C 8.292969 13.867188 8.535156 14.105469 8.535156 14.398438 C 8.535156 14.695312 8.292969 14.933594 8 14.933594 L 4.570312 14.933594 L 4.898438 16 L 8 16 C 8.292969 16 8.535156 16.238281 8.535156 16.535156 C 8.535156 16.828125 8.292969 17.066406 8 17.066406 L 5.226562 17.066406 L 5.554688 18.132812 L 8 18.132812 C 8.292969 18.132812 8.535156 18.371094 8.535156 18.667969 C 8.535156 18.960938 8.292969 19.199219 8 19.199219 L 5.882812 19.199219 L 6.421875 20.957031 C 6.492188 21.179688 6.699219 21.332031 6.933594 21.332031 L 8 21.332031 L 8 25.601562 C 8 29.128906 10.871094 32 14.402344 32 L 21.332031 31.992188 C 24.863281 31.992188 27.734375 29.121094 27.734375 25.59375 L 27.734375 0.535156 C 27.734375 0.238281 27.496094 0 27.199219 0 Z M 12.265625 4.800781 L 12.265625 1.601562 L 13.332031 1.601562 L 13.332031 6.398438 L 11.199219 6.398438 L 11.199219 5.332031 L 11.734375 5.332031 C 12.027344 5.332031 12.265625 5.09375 12.265625 4.800781 Z M 8 1.066406 L 11.199219 1.066406 L 11.199219 4.265625 L 10.667969 4.265625 C 10.371094 4.265625 10.132812 4.503906 10.132812 4.800781 L 10.132812 6.398438 L 9.066406 6.398438 L 9.066406 4.800781 C 9.066406 4.503906 8.828125 4.265625 8.535156 4.265625 L 8 4.265625 Z M 5.867188 1.601562 L 6.933594 1.601562 L 6.933594 4.800781 C 6.933594 5.09375 7.171875 5.332031 7.464844 5.332031 L 8 5.332031 L 8 6.398438 L 5.867188 6.398438 Z M 9.601562 10.132812 C 8.015625 10.132812 6.703125 8.976562 6.449219 7.464844 L 7.535156 7.464844 C 7.769531 8.386719 8.609375 9.066406 9.601562 9.066406 C 10.59375 9.066406 11.429688 8.386719 11.664062 7.464844 L 12.75 7.464844 C 12.496094 8.976562 11.183594 10.132812 9.601562 10.132812 Z M 9.601562 10.132812 "/>
</g>
</svg>
