<?xml version="1.0" encoding="UTF-8"?>
<svg xmlns="http://www.w3.org/2000/svg" xmlns:xlink="http://www.w3.org/1999/xlink" width="32px" height="32px" viewBox="0 0 32 32" version="1.1">
<g id="surface1">
<path style=" stroke:none;fill-rule:nonzero;fill:rgb(0%,0%,0%);fill-opacity:1;" d="M 8.945312 15.085938 C 8.609375 15.097656 8.253906 15.070312 8.066406 14.945312 C 7.882812 14.820312 7.65625 14.457031 7.429688 14.160156 C 6.371094 12.78125 4.488281 12.203125 2.789062 12.867188 C 0.71875 13.671875 -0.304688 16 0.5 18.066406 C 1.304688 20.132812 3.632812 21.15625 5.703125 20.351562 C 6.722656 19.953125 7.488281 19.183594 7.90625 18.253906 C 7.976562 18.097656 8.015625 18.011719 8.132812 17.894531 C 8.253906 17.777344 8.496094 17.703125 8.691406 17.664062 C 9.832031 17.429688 10.789062 17.417969 11.59375 17.539062 L 11.734375 17.160156 C 11.777344 17.03125 12.054688 16.253906 12.464844 15.109375 C 11.515625 15.121094 10.152344 15.054688 8.945312 15.085938 Z M 5.03125 18.632812 C 3.914062 19.066406 2.65625 18.515625 2.222656 17.398438 C 1.785156 16.28125 2.339844 15.019531 3.457031 14.585938 C 4.574219 14.152344 5.832031 14.703125 6.269531 15.820312 C 6.703125 16.9375 6.148438 18.199219 5.03125 18.632812 Z M 5.03125 18.632812 "/>
<path style=" stroke:none;fill-rule:nonzero;fill:rgb(0%,0%,0%);fill-opacity:1;" d="M 31.71875 10.574219 C 31.480469 9.964844 30.753906 9.898438 28.957031 10.367188 C 27.984375 10.621094 23.484375 11.972656 19.554688 13.160156 C 19.167969 15.175781 18.820312 16.984375 18.613281 18.039062 C 22.605469 16.121094 28.734375 13.171875 29.824219 12.59375 C 31.464844 11.71875 31.953125 11.179688 31.71875 10.574219 Z M 31.71875 10.574219 "/>
<path style=" stroke:none;fill-rule:nonzero;fill:rgb(0%,0%,0%);fill-opacity:1;" d="M 18.976562 24.558594 C 18.660156 24.363281 18.273438 24.179688 18.128906 24.007812 C 17.988281 23.835938 17.921875 23.480469 17.898438 23.144531 C 17.773438 21.503906 17.425781 19.582031 17.46875 18.804688 C 17.46875 18.804688 20.230469 4.589844 20.507812 2.753906 C 20.785156 0.917969 20.644531 0.203125 20.015625 0.03125 C 19.386719 -0.140625 18.902344 0.402344 18.207031 2.125 C 17.507812 3.847656 12.652344 17.488281 12.652344 17.488281 C 12.652344 17.488281 15.851562 18.753906 15.363281 23.671875 C 15.34375 23.867188 15.292969 24.117188 15.191406 24.246094 C 15.085938 24.378906 15.003906 24.425781 14.855469 24.511719 C 13.976562 25.023438 13.289062 25.863281 13 26.921875 C 12.414062 29.0625 13.675781 31.273438 15.816406 31.855469 C 17.953125 32.441406 20.164062 31.179688 20.75 29.042969 C 21.230469 27.277344 20.460938 25.46875 18.976562 24.558594 Z M 15.234375 17.515625 C 14.828125 17.40625 14.589844 16.988281 14.703125 16.585938 C 14.8125 16.179688 15.230469 15.941406 15.636719 16.050781 C 16.039062 16.164062 16.277344 16.582031 16.167969 16.984375 C 16.058594 17.390625 15.640625 17.628906 15.234375 17.515625 Z M 18.96875 28.554688 C 18.652344 29.710938 17.457031 30.394531 16.300781 30.078125 C 15.144531 29.761719 14.464844 28.566406 14.78125 27.410156 C 15.097656 26.253906 16.289062 25.570312 17.445312 25.886719 C 18.601562 26.203125 19.285156 27.398438 18.96875 28.554688 Z M 18.96875 28.554688 "/>
</g>
</svg>
